<svg width="98" height="19" viewBox="0 0 98 19" fill="none" xmlns="http://www.w3.org/2000/svg">
    <path d="M0.773438 3.9375V1.03125H14.6719V3.9375H9.46875V18H5.97656V3.9375H0.773438ZM17.6016 18H13.8047L19.6875 1.03125H24.2109L30.0703 18H26.2969L25.0195 14.0859H18.8789L17.6016 18ZM19.7695 11.3438H24.1289L22.0078 4.85156H21.8906L19.7695 11.3438ZM40.8047 5.88281C40.6641 4.53516 39.5977 3.75 37.875 3.75C36.0938 3.75 35.0977 4.57031 35.0859 5.69531C35.0742 6.92578 36.3398 7.47656 37.8047 7.80469L39.3281 8.17969C42.2344 8.84766 44.4023 10.3242 44.4141 13.1484C44.4023 16.2539 41.9883 18.2461 37.8516 18.2344C33.75 18.2461 31.1367 16.3477 31.0312 12.7031H34.4531C34.5703 14.4141 35.9297 15.2812 37.8047 15.2812C39.6562 15.2812 40.8516 14.4141 40.8516 13.1484C40.8516 11.9883 39.7969 11.4492 37.9453 10.9922L36.0938 10.5469C33.2344 9.84375 31.4766 8.41406 31.4766 5.92969C31.4648 2.84766 34.1836 0.796875 37.8984 0.796875C41.6602 0.796875 44.1328 2.88281 44.1797 5.88281H40.8047ZM46.7109 18V1.03125H50.2266V8.55469H50.4609L56.625 1.03125H60.8672L54.5391 8.625L60.9375 18H56.7188L52.0078 10.9922L50.2266 13.1484V18H46.7109ZM66.1406 1.03125V18H62.625V1.03125H66.1406ZM69 18V1.03125H80.1797V3.9375H72.5156V8.0625H79.4531V10.9688H72.5156V18H69ZM81.4688 1.03125H85.4297L89.3438 8.34375H89.5078L93.3984 1.03125H97.3594L91.1719 11.9531V18H87.6562V11.9531L81.4688 1.03125Z" fill="#14142B"/>
</svg>
