<svg width="24" height="24" viewBox="0 0 24 24" fill="none" xmlns="http://www.w3.org/2000/svg">
<path d="M13.7515 7.21289C13.8969 7.33976 14.0941 7.41102 14.2996 7.41102C14.5051 7.41102 14.7023 7.33976 14.8477 7.21289L15.5923 6.56252V15.7672C15.5923 15.9468 15.674 16.1192 15.8195 16.2462C15.965 16.3733 16.1622 16.4446 16.3679 16.4446C16.5737 16.4446 16.7709 16.3733 16.9164 16.2462C17.0619 16.1192 17.1436 15.9468 17.1436 15.7672V6.56252L17.8882 7.21289C17.9592 7.27945 18.0448 7.33284 18.14 7.36987C18.2351 7.4069 18.3378 7.42681 18.442 7.42841C18.5461 7.43002 18.6495 7.41329 18.7461 7.37921C18.8427 7.34514 18.9304 7.29442 19.0041 7.23009C19.0777 7.16576 19.1358 7.08913 19.1748 7.00477C19.2138 6.92041 19.233 6.83006 19.2311 6.73909C19.2293 6.64813 19.2065 6.55842 19.1641 6.47531C19.1217 6.39221 19.0606 6.31741 18.9844 6.25539L16.9161 4.44879C16.7706 4.32192 16.5735 4.25066 16.3679 4.25066C16.1624 4.25066 15.9653 4.32192 15.8198 4.44879L13.7515 6.25539C13.6062 6.38242 13.5247 6.55461 13.5247 6.73414C13.5247 6.91367 13.6062 7.08587 13.7515 7.21289ZM8.87021 15.9388L9.61481 15.2884C9.68582 15.2219 9.77145 15.1685 9.86659 15.1314C9.96173 15.0944 10.0644 15.0745 10.1686 15.0729C10.2727 15.0713 10.3762 15.088 10.4728 15.1221C10.5693 15.1562 10.6571 15.2069 10.7307 15.2712C10.8044 15.3356 10.8624 15.4122 10.9014 15.4965C10.9405 15.5809 10.9596 15.6713 10.9578 15.7622C10.9559 15.8532 10.9331 15.9429 10.8908 16.026C10.8484 16.1091 10.7872 16.1839 10.711 16.2459L8.64269 18.0525C8.49726 18.1794 8.30012 18.2507 8.09458 18.2507C7.88904 18.2507 7.6919 18.1794 7.54647 18.0525L5.47813 16.2459C5.40192 16.1839 5.3408 16.1091 5.29841 16.026C5.25602 15.9429 5.23322 15.8532 5.23138 15.7622C5.22955 15.6713 5.2487 15.5809 5.28771 15.4965C5.32672 15.4122 5.38479 15.3356 5.45844 15.2712C5.53209 15.2069 5.61982 15.1562 5.7164 15.1221C5.81298 15.088 5.91643 15.0713 6.02057 15.0729C6.12472 15.0745 6.22742 15.0944 6.32257 15.1314C6.41771 15.1685 6.50334 15.2219 6.57435 15.2884L7.31895 15.9388V6.73414C7.31895 6.55446 7.40067 6.38215 7.54613 6.25509C7.69159 6.12804 7.88887 6.05667 8.09458 6.05667C8.30029 6.05667 8.49757 6.12804 8.64303 6.25509C8.78849 6.38215 8.87021 6.55446 8.87021 6.73414V15.9388Z" fill="#6E7191"/>
</svg>
