<svg width="24" height="24" viewBox="0 0 24 24" fill="none" xmlns="http://www.w3.org/2000/svg">
<path d="M18.121 10.5885C18.2548 10.4535 18.33 10.2705 18.33 10.0797C18.33 9.8889 18.2548 9.70589 18.121 9.57088L14.7852 6.21076C14.7189 6.14394 14.6401 6.09094 14.5534 6.05477C14.4668 6.01861 14.3739 6 14.2801 6C14.1862 6 14.0934 6.01861 14.0067 6.05477C13.92 6.09094 13.8413 6.14394 13.7749 6.21076C13.7086 6.27758 13.656 6.3569 13.6201 6.44421C13.5842 6.53151 13.5657 6.62508 13.5657 6.71958C13.5657 6.81408 13.5842 6.90765 13.6201 6.99495C13.656 7.08225 13.7086 7.16158 13.7749 7.2284L15.8898 9.35968H9.03909C8.98434 9.36103 8.92982 9.36713 8.87611 9.37792C7.78053 9.48484 6.76766 10.0119 6.04706 10.85C5.32646 11.6881 4.95327 12.7732 5.00469 13.8808C5.05611 14.9883 5.5282 16.0336 6.32331 16.8003C7.11842 17.567 8.17569 17.9965 9.2764 18H10.9004C11.09 18 11.2718 17.9241 11.4059 17.7891C11.5399 17.6541 11.6153 17.4709 11.6153 17.28C11.6153 17.089 11.5399 16.9059 11.4059 16.7708C11.2718 16.6358 11.09 16.5599 10.9004 16.5599H9.2764C8.90092 16.5599 8.52912 16.4854 8.18222 16.3407C7.83533 16.196 7.52013 15.9838 7.25462 15.7164C6.98912 15.4489 6.77851 15.1314 6.63482 14.782C6.49113 14.4326 6.41718 14.0581 6.41718 13.6798C6.41718 13.3016 6.49113 12.9271 6.63482 12.5777C6.77851 12.2282 6.98912 11.9107 7.25462 11.6433C7.52013 11.3759 7.83533 11.1637 8.18222 11.019C8.52912 10.8742 8.90092 10.7997 9.2764 10.7997H15.8898L13.7749 12.931C13.7086 12.9978 13.656 13.0772 13.6201 13.1645C13.5842 13.2518 13.5657 13.3453 13.5657 13.4398C13.5657 13.5343 13.5842 13.6279 13.6201 13.7152C13.656 13.8025 13.7086 13.8818 13.7749 13.9486C13.8413 14.0155 13.92 14.0685 14.0067 14.1046C14.0934 14.1408 14.1862 14.1594 14.2801 14.1594C14.3739 14.1594 14.4668 14.1408 14.5534 14.1046C14.6401 14.0685 14.7189 14.0155 14.7852 13.9486L18.121 10.5885Z" fill="#6E7191"/>
</svg>
