<svg width="24" height="24" viewBox="0 0 24 24" fill="none" xmlns="http://www.w3.org/2000/svg">
<path d="M5.20905 10.5885C5.07519 10.4535 5 10.2705 5 10.0797C5 9.8889 5.07519 9.70589 5.20905 9.57088L8.54481 6.21076C8.61115 6.14394 8.6899 6.09094 8.77657 6.05477C8.86324 6.01861 8.95613 6 9.04994 6C9.14376 6 9.23665 6.01861 9.32332 6.05477C9.40999 6.09094 9.48874 6.14394 9.55508 6.21076C9.62141 6.27758 9.67403 6.3569 9.70993 6.44421C9.74583 6.53151 9.76431 6.62508 9.76431 6.71958C9.76431 6.81408 9.74583 6.90765 9.70993 6.99495C9.67403 7.08225 9.62141 7.16158 9.55508 7.2284L7.4402 9.35968H14.2909C14.3468 9.35968 14.4012 9.36576 14.4539 9.37792C15.5495 9.48484 16.5623 10.0119 17.2829 10.85C18.0035 11.6881 18.3767 12.7732 18.3253 13.8808C18.2739 14.9883 17.8018 16.0336 17.0067 16.8003C16.2116 17.567 15.1543 17.9965 14.0536 18H12.4296C12.24 18 12.0582 17.9241 11.9241 17.7891C11.7901 17.6541 11.7147 17.4709 11.7147 17.28C11.7147 17.089 11.7901 16.9059 11.9241 16.7708C12.0582 16.6358 12.24 16.5599 12.4296 16.5599H14.0536C14.4291 16.5599 14.8009 16.4854 15.1478 16.3407C15.4947 16.196 15.8099 15.9838 16.0754 15.7164C16.3409 15.4489 16.5515 15.1314 16.6952 14.782C16.8389 14.4326 16.9128 14.0581 16.9128 13.6798C16.9128 13.3016 16.8389 12.9271 16.6952 12.5777C16.5515 12.2282 16.3409 11.9107 16.0754 11.6433C15.8099 11.3759 15.4947 11.1637 15.1478 11.019C14.8009 10.8742 14.4291 10.7997 14.0536 10.7997H7.4402L9.55508 12.931C9.62141 12.9978 9.67403 13.0772 9.70993 13.1645C9.74583 13.2518 9.76431 13.3453 9.76431 13.4398C9.76431 13.5343 9.74583 13.6279 9.70993 13.7152C9.67403 13.8025 9.62141 13.8818 9.55508 13.9486C9.48874 14.0155 9.40999 14.0685 9.32332 14.1046C9.23665 14.1408 9.14376 14.1594 9.04994 14.1594C8.95613 14.1594 8.86324 14.1408 8.77657 14.1046C8.6899 14.0685 8.61115 14.0155 8.54481 13.9486L5.20905 10.5885Z" fill="#6E7191"/>
</svg>
